<svg width="23" height="24" viewBox="0 0 23 24" fill="none" xmlns="http://www.w3.org/2000/svg">
  <path
    d="M2.20485 6.266C2.38785 6.02 2.62885 5.687 2.82185 5.449C3.39985 4.793 3.47485 4.707 4.00085 4.222C4.15685 4.094 4.34185 3.94 4.52285 3.795C3.18785 4.925 3.01785 6.176 4.24285 6.949C4.24085 6.949 4.24085 6.949 4.24085 6.951C5.95385 7.983 9.70785 7.76 12.6698 6.438C15.5388 5.158 16.5978 3.327 15.1818 2.239C13.9388 2.006 12.4568 1.979 10.8888 2.189L10.7258 1.92L10.8608 1.474C11.7828 1.391 12.6588 1.411 13.4148 1.54C13.5978 1.571 13.8388 1.624 14.0188 1.662C14.3668 1.747 14.5558 1.798 14.7828 1.871C15.0148 1.94 15.2128 2.009 15.5578 2.137C15.8958 2.27 16.0418 2.33 16.3128 2.465C16.6163 2.60346 16.9112 2.76008 17.1958 2.934C19.4518 4.353 18.0488 6.942 14.0678 8.716C10.0978 10.484 5.03885 10.762 2.77185 9.36C2.77085 9.358 2.76785 9.356 2.76185 9.354H2.76585C1.52785 8.57 1.39785 7.432 2.20485 6.266ZM12.5338 16.186L12.5018 14.592L11.3688 13.332C7.62585 14.18 3.94685 13.998 1.90085 12.793C1.89385 12.785 1.87685 12.777 1.86985 12.769C0.711845 12.056 0.425846 11.136 0.512846 10.136C0.241845 11.599 0.219845 12.127 0.258845 13.379C0.306845 14.163 0.759846 14.886 1.67085 15.456L1.67785 15.464C3.85885 16.82 8.40285 17.114 12.5338 16.186ZM17.2588 18.011C11.9758 20.13 5.36385 20.255 2.49185 18.294C2.802 19.052 3.22403 19.7592 3.74385 20.392C6.37985 22.192 12.4488 22.077 17.2958 20.132C20.1328 18.995 21.9228 17.482 22.3928 16.064L22.5248 15.637C22.8379 14.555 22.8968 13.654 22.9468 12.852C22.8898 14.593 20.8388 16.573 17.2588 18.011ZM5.59685 22.092C5.76285 22.25 6.28485 22.891 8.92985 23.599C9.64485 23.757 11.4448 24.264 14.7698 23.527L14.7898 23.224L14.5268 22.812C11.4418 23.542 8.01485 23.298 5.59685 22.092ZM13.2308 9.483L16.0398 11.612C16.0398 11.612 16.6408 12.045 16.0738 12.349C15.5088 12.65 14.0578 13.387 14.0578 13.387L12.6248 12.852L11.9058 13.172L13.1738 14.273L13.1838 15.986L13.9288 15.655L14.4228 14.208C14.4228 14.208 15.9398 13.624 16.5418 13.404C17.1468 13.189 17.0658 13.925 17.0658 13.925L16.7678 17.436L17.7578 16.996L19.3878 12.259C19.3878 12.259 20.2518 11.839 20.8598 11.47C21.4668 11.101 21.6748 10.489 21.6748 10.489C21.6748 10.489 21.0828 10.234 20.4008 10.439C19.7188 10.642 18.8298 11.004 18.8298 11.004L14.2178 9.045L13.2308 9.483ZM7.28785 2.747L9.19485 4.266L9.71585 4.188L8.67785 2.825C8.67785 2.825 8.45185 2.543 8.75585 2.476C9.06185 2.408 9.83585 2.25 9.83585 2.25L10.4178 2.715L10.8098 2.657L10.3658 1.951L10.5998 1.168L10.2208 1.223L9.77185 1.819C9.77185 1.819 8.98385 1.893 8.67385 1.919C8.36185 1.943 8.49585 1.608 8.49585 1.608L9.09385 0L8.56985 0.077L7.18985 2.086C7.18985 2.086 6.72985 2.17 6.39685 2.265C6.06285 2.359 5.88685 2.617 5.88685 2.617C5.88685 2.617 6.13185 2.815 6.47685 2.808C6.82485 2.801 7.28785 2.747 7.28785 2.747ZM16.7128 22.265L15.4788 21.62L15.1948 21.719L15.9258 22.373C15.9258 22.373 16.0818 22.506 15.9178 22.577C15.7538 22.647 15.3358 22.819 15.3358 22.819L14.9908 22.665L14.7858 22.739L15.0728 23.045L15.0448 23.492L15.2588 23.418L15.4188 23.055C15.4188 23.055 15.8528 22.926 16.0258 22.88C16.1978 22.833 16.1588 23.035 16.1588 23.035L15.9958 24L16.2808 23.901L16.8398 22.625C16.8398 22.625 17.0868 22.528 17.2638 22.439C17.4408 22.35 17.5108 22.186 17.5108 22.186C17.5108 22.186 17.3538 22.1 17.1598 22.143C16.9648 22.184 16.7128 22.265 16.7128 22.265Z"
    fill="#0EA5E9"
  />
</svg>
